<?xml version="1.0" standalone="no"?>
<!DOCTYPE svg PUBLIC "-//W3C//DTD SVG 20010904//EN"
 "http://www.w3.org/TR/2001/REC-SVG-20010904/DTD/svg10.dtd">
<svg version="1.0" xmlns="http://www.w3.org/2000/svg"
 width="3000.000000pt" height="3000.000000pt" viewBox="0 0 3000.000000 3000.000000"
 preserveAspectRatio="xMidYMid meet">

<g transform="translate(0.000000,3000.000000) scale(0.100000,-0.100000)"
fill="#000000" stroke="none">
<path d="M18470 18639 c5 -17 13 -36 18 -42 19 -25 60 -145 71 -207 7 -46 11
-606 11 -1885 1 -1774 1 -1822 -18 -1865 -27 -63 -67 -107 -123 -135 -141 -72
-306 16 -346 184 -9 42 -13 178 -13 556 0 543 -5 606 -56 765 -147 464 -607
800 -1096 800 -473 0 -888 -268 -1077 -695 -92 -208 -104 -322 -99 -915 4
-423 6 -449 27 -519 84 -283 269 -501 514 -610 143 -63 207 -76 392 -76 160 0
175 2 255 29 169 56 302 142 394 253 59 71 126 195 126 232 0 12 4 31 10 41 5
10 12 44 16 76 l6 59 -74 -76 c-113 -119 -196 -174 -333 -225 -71 -26 -92 -29
-185 -28 -118 1 -183 19 -305 82 -108 56 -221 175 -279 294 -71 146 -76 189
-76 612 0 421 5 460 75 603 36 72 61 108 123 170 86 87 154 131 264 171 68 25
84 27 223 26 143 -1 154 -2 226 -31 102 -41 174 -90 251 -172 112 -120 170
-244 188 -399 13 -123 5 -1812 -10 -1917 -34 -234 -175 -481 -376 -657 -175
-154 -418 -275 -601 -300 -46 -6 -83 -15 -83 -18 0 -15 58 -31 172 -47 105
-15 139 -15 265 -5 122 10 164 18 262 51 155 51 262 106 381 196 86 64 245
238 297 325 91 150 156 336 173 490 23 215 17 202 76 179 16 -5 63 -15 107
-20 147 -18 336 27 469 113 134 86 260 243 309 383 48 137 49 160 49 1900 0
1040 -4 1669 -10 1738 -16 171 -83 295 -212 392 -96 73 -289 155 -365 155 -19
0 -21 -3 -13 -31z"/>
<path d="M20015 18646 c-132 -42 -204 -84 -291 -171 -65 -64 -90 -98 -125
-169 l-44 -89 -6 -1946 c-4 -1411 -9 -1961 -17 -2002 -16 -75 -49 -178 -67
-205 -7 -12 -15 -34 -17 -50 -3 -27 -1 -29 32 -26 221 22 454 200 533 407 l22
60 6 1950 c5 1801 7 1956 22 2022 23 96 42 148 67 183 46 64 10 76 -115 36z"/>
<path d="M10140 17551 c-74 -24 -148 -90 -176 -157 -29 -70 -14 -166 38 -228
53 -65 112 -96 180 -96 32 0 73 6 92 14 46 19 102 71 133 123 80 137 -30 334
-195 348 -26 3 -58 1 -72 -4z"/>
<path d="M9840 16814 c0 -9 16 -52 36 -96 19 -43 44 -123 55 -176 19 -93 19
-142 16 -1392 l-3 -1295 -26 -115 c-15 -63 -39 -151 -53 -195 -40 -118 -145
-318 -219 -416 -77 -102 -211 -231 -324 -314 -89 -65 -89 -76 2 -56 28 6 87
17 131 26 115 21 289 93 400 163 81 52 211 162 265 223 190 217 288 457 316
771 3 37 9 70 13 72 3 2 33 -2 66 -10 78 -18 466 -21 545 -3 91 19 209 69 278
116 35 25 70 47 77 49 6 3 34 -13 61 -36 52 -43 135 -86 224 -116 52 -18 129
-19 1553 -24 1061 -4 1500 -8 1505 -16 9 -14 138 -89 194 -113 78 -33 196 -53
302 -49 l99 3 -50 66 c-67 86 -105 156 -142 256 -27 74 -154 573 -316 1238
-109 451 -159 637 -194 723 -137 331 -430 586 -781 677 -130 33 -328 44 -459
25 -363 -53 -686 -282 -864 -612 -92 -170 -130 -332 -130 -543 1 -241 80 -420
249 -567 168 -145 339 -183 598 -135 43 8 83 20 89 26 13 13 1 23 -93 80 -201
121 -341 332 -356 539 -15 212 50 385 207 543 60 61 93 85 160 117 131 62 198
76 336 69 181 -8 302 -63 428 -193 127 -132 153 -192 254 -584 278 -1085 269
-1049 253 -1058 -5 -4 -606 -7 -1334 -6 -976 0 -1334 3 -1363 12 -60 17 -118
65 -151 124 l-29 53 -5 845 c-6 902 -5 877 -57 970 -103 182 -287 306 -497
335 -57 8 -57 15 -2 -115 67 -156 67 -153 64 -1151 l-3 -896 -30 -48 c-41 -65
-89 -101 -160 -120 -115 -29 -365 -11 -423 32 -15 11 -44 44 -65 74 -36 52
-38 59 -48 174 -6 71 -9 418 -8 845 2 637 1 731 -13 776 -54 174 -172 298
-363 381 -38 17 -95 36 -125 42 -30 7 -63 15 -72 18 -12 3 -18 -1 -18 -13z"/>
<path d="M11057 13730 c-111 -28 -180 -110 -192 -230 -6 -61 -4 -68 27 -120
89 -146 265 -171 382 -53 58 60 81 116 73 183 -18 149 -155 253 -290 220z"/>
<path d="M11673 13730 c-46 -11 -119 -56 -141 -88 -34 -47 -61 -144 -53 -188
27 -146 195 -243 325 -189 85 36 166 144 166 223 0 82 -60 174 -144 222 -52
30 -90 35 -153 20z"/>
<path d="M13595 13731 c-80 -21 -141 -70 -176 -145 -35 -75 -37 -122 -5 -184
34 -64 70 -100 130 -128 129 -60 270 5 330 151 17 41 17 53 7 101 -32 140
-165 236 -286 205z"/>
<path d="M17358 11629 c-26 -14 -23 -65 3 -79 16 -9 25 -8 40 6 25 22 24 60 0
74 -23 12 -22 12 -43 -1z"/>
<path d="M14880 11606 c0 -40 11 -56 36 -56 31 0 53 42 34 65 -7 8 -25 15 -41
15 -24 0 -29 -4 -29 -24z"/>
<path d="M15023 11623 c-18 -7 -16 -48 2 -63 23 -19 72 -3 79 26 4 14 4 29 1
34 -6 10 -61 12 -82 3z"/>
<path d="M15548 11366 c-2 -134 -7 -248 -11 -253 -5 -4 -92 -9 -193 -11 -204
-4 -197 -6 -169 61 8 20 15 60 15 89 -1 110 -76 179 -199 179 -74 1 -122 -21
-165 -75 -29 -35 -31 -43 -29 -114 1 -43 3 -90 5 -106 3 -34 22 -31 -194 -34
-109 -2 -140 -5 -152 -18 -9 -8 -14 -20 -11 -25 9 -13 1074 -12 1113 2 17 6
34 18 38 27 13 27 17 463 5 495 -7 17 -18 27 -30 27 -19 0 -20 -9 -23 -244z
m-466 -14 c36 -21 53 -57 51 -109 -1 -42 -28 -98 -58 -123 -7 -6 -44 -12 -81
-12 -78 0 -106 16 -141 81 -21 40 -22 45 -7 80 40 97 146 134 236 83z"/>
<path d="M15802 11598 c-9 -9 -12 -85 -12 -280 l0 -268 30 0 30 0 0 258 c0
141 -3 267 -6 280 -7 24 -24 28 -42 10z"/>
<path d="M13417 11593 c-4 -3 -7 -127 -7 -275 l0 -268 30 0 30 0 0 253 c0 138
3 262 6 275 6 19 3 22 -23 22 -16 0 -33 -3 -36 -7z"/>
<path d="M17340 11433 c-50 -14 -111 -50 -130 -75 -28 -38 -40 -123 -25 -169
7 -19 15 -46 18 -60 l6 -25 -261 1 c-247 2 -262 1 -281 -18 -28 -28 -8 -37 80
-37 93 0 103 -4 103 -46 0 -48 -18 -80 -63 -111 -39 -27 -44 -28 -176 -28
-146 0 -186 10 -257 62 -57 40 -80 155 -50 241 8 22 12 43 9 46 -15 14 -41 4
-53 -21 -19 -41 -25 -163 -10 -208 18 -56 72 -108 142 -141 57 -26 75 -29 188
-32 136 -4 180 4 246 46 52 32 77 73 84 137 l5 50 270 5 c226 4 275 8 300 22
133 73 134 273 1 337 -40 20 -117 33 -146 24z m133 -79 c90 -47 64 -210 -39
-244 -35 -12 -103 -6 -136 11 -30 16 -68 82 -68 118 0 39 30 92 64 114 44 29
123 29 179 1z"/>
<path d="M12832 11394 c-10 -18 -4 -61 9 -69 4 -3 19 -3 33 1 46 11 39 84 -9
84 -13 0 -28 -7 -33 -16z"/>
<path d="M13823 11402 c-7 -5 -12 -71 -15 -207 -5 -226 -13 -262 -68 -307 -29
-23 -46 -28 -93 -29 -63 -2 -73 -8 -54 -33 16 -22 113 -24 154 -3 38 21 89 75
104 112 7 18 14 117 18 240 6 180 5 212 -8 223 -17 14 -22 14 -38 4z"/>
<path d="M12682 11388 c-7 -7 -12 -22 -12 -35 0 -20 5 -23 40 -23 34 0 41 4
46 24 3 14 3 30 -1 35 -9 15 -58 14 -73 -1z"/>
<path d="M13168 11270 c-2 -108 -6 -132 -21 -147 -16 -17 -45 -18 -360 -18
-411 0 -397 -4 -397 100 0 50 -3 65 -14 65 -44 0 -62 -89 -31 -155 28 -59 35
-60 420 -63 229 -2 363 0 386 7 62 18 72 46 77 204 l5 137 -31 0 -30 0 -4
-130z"/>
<path d="M14084 11386 c-4 -9 -3 -20 1 -24 3 -4 67 -9 140 -12 124 -5 136 -7
159 -29 22 -20 26 -34 26 -78 0 -54 -16 -99 -43 -121 -10 -8 -66 -13 -171 -14
-142 -1 -158 -3 -167 -20 -5 -10 -7 -23 -4 -28 4 -6 71 -10 163 -9 143 0 161
2 206 23 45 22 51 28 62 72 27 103 12 178 -44 220 -36 28 -41 29 -179 33 -126
3 -144 1 -149 -13z"/>
<path d="M16501 10716 c-7 -8 -13 -27 -14 -43 -2 -25 2 -28 31 -31 31 -3 32
-2 32 36 0 27 -5 42 -16 46 -21 8 -20 8 -33 -8z"/>
<path d="M16628 10698 c-5 -37 3 -68 19 -68 44 0 70 49 41 78 -21 21 -56 15
-60 -10z"/>
</g>
</svg>
